<?xml version="1.0" encoding="UTF-8"?>
<!-- Generator: visioncortex VTracer 0.6.2 -->
<svg version="1.1" xmlns="http://www.w3.org/2000/svg" width="1280" height="1280">
<path d="M0 0 C422.4 0 844.8 0 1280 0 C1280 422.4 1280 844.8 1280 1280 C857.6 1280 435.2 1280 0 1280 C0 857.6 0 435.2 0 0 Z " fill="#FCFDFF" transform="translate(0,0)"/>
<path d="M0 0 C9.21146511 8.32073382 12.74408795 22.06390795 17.16210938 33.30273438 C20.93219303 42.5824836 25.14341833 49.60781616 33.8125 54.875 C34.42633545 55.25648193 35.0401709 55.63796387 35.67260742 56.03100586 C40.39161305 58.85819418 44.52706096 60.60611424 50 61 C50.70125 61.09023438 51.4025 61.18046875 52.125 61.2734375 C61.87473702 62.00466778 71.47477256 56.78382131 78.6953125 50.58984375 C86.38698965 41.94648451 90.14983383 29.57130315 94.21142578 18.91503906 C98.33145928 8.18952884 102.89478928 1.34311891 113.375 -3.875 C124.48889294 -8.57528214 133.8348069 -4.73555894 144.53125 -0.44140625 C146.8561162 0.51349642 149.1790087 1.47321718 151.5 2.4375 C153.82281106 3.39478754 156.14572608 4.35182288 158.46875 5.30859375 C159.56960938 5.76347168 160.67046875 6.21834961 161.8046875 6.68701172 C166.19073454 8.48928563 170.59224149 10.2515975 175 12 C175.47308594 11.34773438 175.94617188 10.69546875 176.43359375 10.0234375 C182.11711326 2.5118854 188.45893991 -3.96998722 198 -6 C211.63392706 -7.43515022 225.72728412 0.60488006 237.98388672 5.73828125 C241.04986363 7.02085926 244.12005162 8.29285882 247.19140625 9.5625 C252.22316366 11.64464747 257.24760806 13.74360576 262.26757812 15.85400391 C264.01464879 16.58673708 265.76321153 17.31592925 267.51367188 18.04052734 C269.72171551 18.95472359 271.92396098 19.88159274 274.125 20.8125 C275.92324219 21.56466797 275.92324219 21.56466797 277.7578125 22.33203125 C285.34807271 26.23690006 290.98536734 32.30567299 293.85546875 40.41796875 C296.57721048 51.90773752 293.48944667 61.26208495 288.94726562 71.80175781 C287.15674667 75.95686932 285.41393784 80.1304238 283.6875 84.3125 C283.3380835 85.12388428 282.98866699 85.93526855 282.62866211 86.77124023 C277.98105308 98.03737396 278.6792703 107.71633503 282.625 119.0625 C286.05922107 127.1774372 292.58602147 132.84952796 299.1875 138.4453125 C301.59020934 140.50625715 303.7925378 142.73287666 306 145 C306.7425 145.721875 307.485 146.44375 308.25 147.1875 C310.70153208 149.69474872 313.04049453 152.25956252 315.375 154.875 C320.9945217 161.1447143 326.80625566 166.94615484 333.203125 172.421875 C335 174 335 174 336.3515625 175.67578125 C338.82906146 177.66599961 340.99327101 177.37456928 344.125 177.4375 C351.63506103 177.86401794 357.08000441 179.41182209 362.75 184.4375 C364.30953405 186.213636 365.85002324 188.00660647 367.375 189.8125 C370.82525994 192.68771661 372.58773255 192.26529456 377 192 C389.63775118 189.69283562 401.67806051 183.85374131 413.47314453 178.96801758 C419.47441127 176.66898158 424.84729096 175.84152424 430.9765625 178.09375 C441.44653692 182.97800606 446.05677887 188.99283789 450.375 199.5 C450.98142334 200.93315552 450.98142334 200.93315552 451.60009766 202.39526367 C452.79743663 205.24129338 453.98018218 208.09290427 455.15527344 210.94818115 C456.08566462 213.20807713 457.01928023 215.46662668 457.953125 217.72509766 C462.10773558 227.77940855 466.24883238 237.83930766 470.33325195 247.92236328 C471.30899828 250.3264477 472.30889978 252.70979078 473.34448242 255.08935547 C475.60512054 260.33918812 476.68532486 264.77287154 476.5625 270.5 C476.55226807 271.2319458 476.54203613 271.9638916 476.53149414 272.71801758 C476.22392183 280.59727092 473.70124848 286.65418615 468.0625 292.25 C461.23232958 297.46708762 452.51899985 300.04802063 444.55078125 303.0625 C428.1284869 309.36283336 418.9214029 315.30190239 411.49609375 331.5234375 C409.31159632 336.59968478 408.8418864 340.60881564 408.82299805 346.06054688 C408.81642685 346.8821228 408.80985565 347.70369873 408.80308533 348.5501709 C408.78335537 351.27303156 408.77168669 353.99583691 408.76171875 356.71875 C408.75764322 357.65106949 408.7535677 358.58338898 408.74936867 359.54396057 C408.72850324 364.48438292 408.71420694 369.4247775 408.70483398 374.36523438 C408.69380471 379.4480116 408.65944658 384.53034679 408.61966228 389.61296844 C408.59340036 393.53715784 408.58513338 397.46124378 408.58155251 401.38551331 C408.57670655 403.2576443 408.56514992 405.12977129 408.54651451 407.0018158 C408.4217637 420.37131793 409.22866171 430.80040543 417.73046875 441.734375 C424.09391421 448.08686789 430.73626931 452.16234494 439.0625 455.4375 C440.91023395 456.20109682 442.75657674 456.96806803 444.6015625 457.73828125 C445.9632959 458.30409912 445.9632959 458.30409912 447.35253906 458.88134766 C467.4653726 467.37978027 467.4653726 467.37978027 472 475 C472.60714844 475.81791016 472.60714844 475.81791016 473.2265625 476.65234375 C477.27235159 482.94120638 477.49742273 491.83331963 476 499 C474.48852597 503.38165796 472.7212216 507.63858859 470.89782715 511.89682007 C469.98834779 514.02729556 469.09836851 516.16495139 468.21386719 518.3059082 C466.34245191 522.83413985 464.45347953 527.35491017 462.5625 531.875 C461.60868854 534.15702987 460.65521765 536.43920105 459.70222473 538.72157288 C459.07318583 540.22771766 458.44354307 541.73361038 457.8132782 543.23924255 C456.21223533 547.06949327 454.62831286 550.90567667 453.0715332 554.75415039 C452.75897079 555.52385162 452.44640839 556.29355286 452.12437439 557.08657837 C451.53325436 558.54475278 450.9456641 560.00436519 450.36231995 561.46566772 C446.90305704 569.98503686 442.11005267 576.44462972 434 581 C423.98909127 585.06049943 413.22898967 582.53332825 403.64453125 578.55273438 C402.60683594 578.10220703 401.56914063 577.65167969 400.5 577.1875 C385.2143201 569.60477731 385.2143201 569.60477731 369 568 C367.40363242 569.72015009 366.22184672 571.44091895 365.04296875 573.46875 C364.69878906 573.9740625 364.35460937 574.479375 364 575 C363.34 575 362.68 575 362 575 C361.79375 575.598125 361.5875 576.19625 361.375 576.8125 C359.42455057 579.91548772 357.36929765 580.60259545 354 582 C350.2734375 582.51171875 350.2734375 582.51171875 346.375 582.6875 C345.08335937 582.75324219 343.79171875 582.81898438 342.4609375 582.88671875 C339.97500297 582.96808681 337.48726581 583 335 583 C334.73735352 583.58789307 334.47470703 584.17578613 334.20410156 584.78149414 C332.94144384 587.10788724 331.60780639 588.63593987 329.734375 590.49609375 C329.09113281 591.13740234 328.44789063 591.77871094 327.78515625 592.43945312 C327.11355469 593.09880859 326.44195313 593.75816406 325.75 594.4375 C324.76580078 595.42073242 324.76580078 595.42073242 323.76171875 596.42382812 C320.83892653 599.3204721 317.90821244 602.13583036 314.71875 604.73828125 C312.42574639 606.64582305 310.61846525 608.44883753 308.75 610.75 C306.06975333 613.90253683 303.23720842 616.64820438 300.125 619.375 C289.63138443 628.73804394 280.06076275 639.50017536 278 654 C277.47373434 664.34989141 280.11836234 673.02320428 284.375 682.375 C285.18658089 684.22395211 285.99520161 686.07420654 286.80078125 687.92578125 C287.18314941 688.80314941 287.56551758 689.68051758 287.95947266 690.58447266 C291.99301763 699.9481268 295.3585555 709.4066018 292.19921875 719.578125 C291.24535835 721.80257164 290.17835232 723.88769435 289 726 C288.4121875 727.3303125 288.4121875 727.3303125 287.8125 728.6875 C282.23429488 735.80452032 273.15737784 738.83012551 265 742 C261.706003 743.3066685 258.415665 744.62246704 255.125 745.9375 C254.26173096 746.28119629 253.39846191 746.62489258 252.5090332 746.97900391 C246.30654694 749.45484772 240.16433236 752.0429205 234.03515625 754.6953125 C229.72163505 756.54951595 225.37482955 758.29671418 221 760 C220.12988281 760.36222656 219.25976562 760.72445312 218.36328125 761.09765625 C208.89104045 764.86763511 198.80465858 766.65233298 189 763 C185.75 761.125 185.75 761.125 183 759 C182.13375 758.401875 181.2675 757.80375 180.375 757.1875 C177.35575123 754.40661297 175.88722753 751.63466044 174 748 C168.33295253 749.76618744 162.84545516 751.83945885 157.359375 754.1015625 C155.94408569 754.67987176 154.52871956 755.25799304 153.11328125 755.8359375 C150.93335694 756.72668029 148.75624607 757.62237363 146.58544922 758.53515625 C136.00235234 762.97299674 124.46131837 767.49666794 112.90234375 763.85546875 C100.55616509 758.30349108 96.22632663 749.97011313 91.5625 737.8125 C85.13148157 720.91832476 85.13148157 720.91832476 74 707 C74 706.34 74 705.68 74 705 C73.43023438 704.72414063 72.86046875 704.44828125 72.2734375 704.1640625 C70 703 70 703 67.9140625 701.7109375 C60.03449207 697.11228036 52.04724794 696.49029654 43.19921875 698.69921875 C33.72764273 702.19029731 24.71705982 708.03492264 19.86816406 717.12084961 C18.8457466 719.41324627 17.90880889 721.72281063 17 724.0625 C16.31662437 725.74748431 15.63302878 727.43237943 14.94921875 729.1171875 C14.61970215 729.9431543 14.29018555 730.76912109 13.95068359 731.62011719 C4.13476037 756.1926954 4.13476037 756.1926954 -8 763 C-20.24198928 767.29987227 -32.74012004 762.73924836 -44 758 C-45.07145264 757.55116455 -45.07145264 757.55116455 -46.16455078 757.09326172 C-51.79644324 754.7124549 -57.36371396 752.19863138 -62.9296875 749.66796875 C-66.80865536 747.72257913 -66.80865536 747.72257913 -71 747 C-72.11637438 748.59568142 -72.11637438 748.59568142 -73.1875 750.625 C-77.35403845 757.52850212 -82.42181861 761.24501531 -90 764 C-99.93539554 765.24973529 -107.9654318 764.03041801 -117.05419922 759.86865234 C-120.14450191 758.48906678 -123.29014925 757.24984426 -126.4296875 755.98730469 C-135.86326026 752.18247488 -145.24591118 748.24930151 -154.625 744.3125 C-155.67840576 743.87341309 -156.73181152 743.43432617 -157.81713867 742.98193359 C-183.71830511 732.05790991 -183.71830511 732.05790991 -188.9375 721.75 C-193.64926259 710.04912291 -189.61776915 701.00834785 -185 690 C-184.2975783 688.36167745 -183.59443146 686.72366565 -182.890625 685.0859375 C-176.49716477 670.04062338 -172.49843736 657.38612048 -178.484375 641.45703125 C-180.25118415 637.42706709 -182.19472204 634.36633355 -185 631 C-185 630.34 -185 629.68 -185 629 C-185.59441895 628.74323486 -186.18883789 628.48646973 -186.80126953 628.22192383 C-189.20752721 626.8846687 -190.44320021 625.57054771 -192.1796875 623.44921875 C-196.24805003 618.64421138 -200.65125752 614.23801805 -205.125 609.8125 C-206.30255859 608.64170898 -206.30255859 608.64170898 -207.50390625 607.44726562 C-210.54527489 604.42384773 -213.58850689 601.40300871 -216.65234375 598.40234375 C-218.53580522 596.47500797 -220.29690097 594.51944321 -222.05859375 592.484375 C-228.29668785 585.17099437 -228.29668785 585.17099437 -236.67578125 581.04296875 C-239.02632099 580.97360856 -241.38006618 580.97301274 -243.73046875 581.046875 C-250.60363673 580.94833496 -257.15109034 576.70197301 -262 572 C-263.02482562 570.34848245 -264.02823483 568.68328554 -265 567 C-276.09823838 566.93590126 -284.93603602 570.95150149 -294.78027344 575.50073242 C-305.7797213 580.53750323 -316.64792524 583.95330351 -328.63378906 579.71508789 C-335.24749232 576.67737401 -340.52247627 573.2817726 -343.58984375 566.46875 C-344.05143033 565.15009772 -344.50013913 563.82688412 -344.9375 562.5 C-345.44784699 561.04937634 -345.96222306 559.60016434 -346.48046875 558.15234375 C-346.73489746 557.44062012 -346.98932617 556.72889648 -347.25146484 555.99560547 C-348.27138136 553.2764934 -349.49011521 550.6780918 -350.75 548.0625 C-354.29354806 540.60239883 -357.27155243 532.92656471 -360.31176758 525.25048828 C-362.61401126 519.4448303 -364.95562257 513.66871821 -367.4375 507.9375 C-368.12005859 506.35195312 -368.12005859 506.35195312 -368.81640625 504.734375 C-369.54409725 503.05324068 -370.27939504 501.37534494 -371.02734375 499.703125 C-374.07893204 492.44681367 -373.85063298 485.56625955 -371.09375 478.265625 C-364.91243359 465.46146957 -353.54661254 462.13130418 -341.0625 457.125 C-325.45776452 450.71593342 -313.89410797 444.62210456 -306.9453125 428.515625 C-305.08533251 423.56592619 -304.84129955 419.07862938 -304.82299805 413.81005859 C-304.81642685 412.98673035 -304.80985565 412.1634021 -304.80308533 411.31512451 C-304.78339183 408.5928945 -304.77169675 405.87071964 -304.76171875 403.1484375 C-304.75764322 402.21578693 -304.7535677 401.28313637 -304.74936867 400.32222366 C-304.72852188 395.38294955 -304.71421576 390.44370309 -304.70483398 385.50439453 C-304.69378981 380.42042727 -304.65940889 375.33690011 -304.61966228 370.253088 C-304.59342494 366.32894111 -304.5851357 362.40489781 -304.58155251 358.48067093 C-304.57670269 356.60771345 -304.56513485 354.73476009 -304.54651451 352.86188889 C-304.30533955 338.94106749 -304.30533955 338.94106749 -309 326 C-309.46921875 325.03707031 -309.9384375 324.07414062 -310.421875 323.08203125 C-318.01095307 310.11363608 -329.42407555 305.40059554 -342.84375 300.0625 C-364.31872405 291.47208835 -364.31872405 291.47208835 -370.0625 281.0625 C-374.60757028 270.38158484 -372.35772548 262.43340363 -368.18212891 251.94580078 C-366.23554393 247.17370188 -364.19955543 242.44105912 -362.15917969 237.70849609 C-360.06773736 232.82170983 -358.03883623 227.90890232 -356 223 C-355.15106254 220.96874128 -354.30210438 218.9374912 -353.453125 216.90625 C-351.87568822 213.1243515 -350.32396745 209.33373792 -348.796875 205.53125 C-348.45011719 204.67917969 -348.10335937 203.82710937 -347.74609375 202.94921875 C-347.1090051 201.38273019 -346.48053664 199.81269038 -345.86328125 198.23828125 C-341.59798194 187.83095094 -335.32943656 181.27927219 -325.0859375 176.734375 C-314.69568917 174.26175894 -306.70319029 177.15399479 -297.125 181.25 C-281.129899 188.78286248 -281.129899 188.78286248 -264 191 C-261.85250004 188.23761134 -261.85250004 188.23761134 -260 185 C-253.88301552 178.88301552 -245.96659931 175.8125 -237.4375 175.8125 C-231.85333593 175.60052699 -229.53138417 174.29594486 -225.625 170.3125 C-224.07589398 168.54817085 -222.53356718 166.77785222 -221 165 C-219.7967277 163.92852629 -218.5703527 162.88183997 -217.3125 161.875 C-214.10523769 159.21108566 -211.44880353 156.21820713 -208.7734375 153.02734375 C-206.6213119 150.56709444 -204.32651201 148.296514 -202 146 C-200.87424211 144.8757584 -199.74929139 143.75070817 -198.625 142.625 C-196.20833333 140.20833333 -193.79166667 137.79166667 -191.375 135.375 C-190.80056152 134.79991699 -190.22612305 134.22483398 -189.63427734 133.63232422 C-188.16968755 132.16948476 -186.69854676 130.71321103 -185.2265625 129.2578125 C-177.19516021 121.11368878 -174.53903977 111.53120224 -173.88671875 100.1953125 C-174.38705173 86.0824719 -181.62018259 70.27844532 -188.10546875 57.88793945 C-190.55645751 52.71504205 -189.62249872 45.49672458 -188.27734375 40.1015625 C-184.91390121 31.03252311 -178.49584098 26.01366648 -169.89453125 22.02319336 C-167.65037649 21.10445404 -165.39340106 20.23210662 -163.125 19.375 C-153.70733062 15.71587115 -144.40262873 11.82168009 -135.10986328 7.85693359 C-129.5151508 5.47382378 -123.90601412 3.14847101 -118.25146484 0.91113281 C-116.20052136 0.08114788 -114.18136115 -0.79504716 -112.1640625 -1.703125 C-103.72795654 -5.39042959 -95.82558563 -8.15005947 -86.65625 -5.26171875 C-79.34702646 -1.94802226 -74.26614755 4.35888372 -70 11 C-70 11.66 -70 12.32 -70 13 C-65.72752152 11.33753554 -61.45699527 9.67010821 -57.1875 8 C-56.55318054 7.75211731 -55.91886108 7.50423462 -55.26531982 7.24884033 C-46.39752693 3.77971326 -37.57395946 0.22727707 -28.86401367 -3.625 C-18.1754877 -8.26367407 -9.22120801 -7.32617162 0 0 Z " fill="#F967C5" transform="translate(587,249)"/>
<path d="M0 0 C0.90564697 0.30510498 1.81129395 0.61020996 2.74438477 0.92456055 C19.27906775 6.77189902 34.73520145 15.41312228 48.5 26.25 C50.00626953 27.40822266 50.00626953 27.40822266 51.54296875 28.58984375 C56.42722165 32.44583288 60.77805688 36.36766772 64.72021484 41.18579102 C66.45207593 43.19441728 68.27837108 44.96734562 70.2109375 46.78125 C75.05103089 51.5913669 78.71774966 56.98993118 82.4375 62.6875 C83.13552734 63.75226563 83.83355469 64.81703125 84.55273438 65.9140625 C108.71459948 103.17952515 117.78986865 147.04760468 109.00488281 190.91796875 C104.41182777 212.13308567 96.53253521 232.76045058 83.5 250.25 C82.88382813 251.13171875 82.26765625 252.0134375 81.6328125 252.921875 C69.71722372 269.86210966 54.72184594 283.87352512 37.5 295.25 C36.60539063 295.85714844 35.71078125 296.46429687 34.7890625 297.08984375 C19.23730496 307.38762915 -1.23481001 318.63020068 -20.5 315.25 C-27.73646734 313.19784542 -34.62598801 310.27504757 -41.5 307.25 C-42.21978027 306.94030273 -42.93956055 306.63060547 -43.68115234 306.31152344 C-59.94912798 299.20289435 -74.71534609 288.48851335 -87.5 276.25 C-88.80929458 275.16279484 -90.12175194 274.07938613 -91.4375 273 C-110.08889436 256.63781099 -121.26604181 233.7993838 -130.5 211.25 C-130.81839844 210.50363281 -131.13679687 209.75726562 -131.46484375 208.98828125 C-133.38084966 204.28882398 -134.27542494 199.57670959 -135.0703125 194.5703125 C-135.39197431 192.23532513 -135.39197431 192.23532513 -136.5 190.25 C-138.34288867 181.66904961 -139.08080531 173.00196725 -139.5 164.25 C-139.54253906 163.3940625 -139.58507812 162.538125 -139.62890625 161.65625 C-139.77971889 155.3020107 -139.20159758 149.00910618 -138.625 142.6875 C-138.54660889 141.81279053 -138.46821777 140.93808105 -138.38745117 140.03686523 C-135.45040327 110.01026716 -123.39556274 81.37640644 -105.5 57.25 C-104.58149738 55.91793075 -103.66449587 54.58482316 -102.75 53.25 C-100.51786276 50.27381702 -98.14604196 47.86254776 -95.5 45.25 C-94.43158387 44.15038679 -93.36528996 43.04870882 -92.30078125 41.9453125 C-86.41266858 35.89504147 -80.7169799 30.24778452 -73.59765625 25.62890625 C-71.72607498 24.39861167 -70.10589906 23.1115572 -68.4375 21.625 C-65.46337476 19.22038811 -62.53771806 17.49036828 -59.17578125 15.69921875 C-56.57515148 14.29070248 -54.02963905 12.80338547 -51.48242188 11.30102539 C-35.57359065 1.9855305 -18.29404485 -6.1670947 0 0 Z " fill="#FCFDFF" transform="translate(652.5,471.75)"/>
<path d="M0 0 C2.46336199 1.01272634 4.92821161 2.0218417 7.39453125 3.02734375 C8.58900879 3.51702637 9.78348633 4.00670898 11.01416016 4.51123047 C18.03817866 7.3094167 25.22589491 9.61421904 32.4375 11.875 C30.50721863 20.11724827 27.56984961 27.77457016 24.22497559 35.52893066 C22.76410788 38.91664154 21.32684791 42.31437155 19.88671875 45.7109375 C19.59636749 46.39414062 19.30601624 47.07734375 19.00686646 47.78125 C16.14586593 54.52765994 13.40012377 61.31749813 10.6875 68.125 C10.26976318 69.17123535 9.85202637 70.2174707 9.42163086 71.29541016 C5.81892307 80.35734252 3.10295307 89.06557719 7 98.625 C12.21183156 108.2431771 18.45210065 112.42870202 28.5 116.4375 C30.73923068 117.37795092 32.97751978 118.320647 35.21484375 119.265625 C36.28718262 119.71228516 37.35952148 120.15894531 38.46435547 120.61914062 C52.7923514 126.67130117 63.73148291 132.81985927 70.23138428 147.69137573 C73.41935668 156.61832576 72.91055613 165.89258081 72.90625 175.2421875 C72.91336417 177.12729108 72.92106497 179.01239253 72.92932129 180.89749146 C72.94271748 184.83618194 72.94435675 188.77467212 72.93847656 192.71337891 C72.93258408 197.73214524 72.96317631 202.74994303 73.00359344 207.76852226 C73.02958623 211.65846836 73.03233743 215.54818476 73.02870178 219.43820572 C73.0303821 221.28717609 73.03991838 223.13615835 73.05784607 224.98504257 C73.19150458 240.47090076 70.59176048 252.0132674 59.76953125 263.671875 C52.51202321 270.66631771 43.12198774 274.4355036 33.88671875 278.10546875 C32.91557129 278.49234863 31.94442383 278.87922852 30.94384766 279.27783203 C29.02344423 280.03433529 27.0974739 280.77689957 25.16552734 281.50341797 C16.09872592 285.04140447 10.44371204 289.33552099 6.37890625 298.296875 C2.27743214 309.52912775 6.29146442 319.19515589 11 329.5625 C11.90559151 331.60069913 12.80918913 333.63978516 13.7109375 335.6796875 C14.16694336 336.70932617 14.62294922 337.73896484 15.09277344 338.79980469 C18.71558258 347.08464564 22.07254879 355.48289276 25.4375 363.875 C25.79038086 364.7525293 26.14326172 365.63005859 26.50683594 366.53417969 C27.51158344 369.04089828 28.50774467 371.55081378 29.5 374.0625 C29.7993042 374.81120361 30.0986084 375.55990723 30.40698242 376.33129883 C31.57748037 379.32568551 32.4375 381.62978631 32.4375 384.875 C31.75397461 384.94251465 31.07044922 385.0100293 30.36621094 385.07958984 C24.12940588 385.88737504 18.5885873 387.40991192 12.828125 389.9140625 C11.83540588 390.3437735 11.83540588 390.3437735 10.82263184 390.78216553 C8.09101394 391.9772791 5.36766686 393.18821596 2.65722656 394.43066406 C-8.32963399 399.42854612 -19.24632611 402.81505019 -31.19628906 398.59033203 C-37.80985469 395.55215262 -43.08491699 392.15690427 -46.15234375 385.34375 C-46.61393033 384.02509772 -47.06263913 382.70188412 -47.5 381.375 C-48.01034699 379.92437634 -48.52472306 378.47516434 -49.04296875 377.02734375 C-49.29739746 376.31562012 -49.55182617 375.60389648 -49.81396484 374.87060547 C-50.83388136 372.1514934 -52.05261521 369.5530918 -53.3125 366.9375 C-56.85604806 359.47739883 -59.83405243 351.80156471 -62.87426758 344.12548828 C-65.17651126 338.3198303 -67.51812257 332.54371821 -70 326.8125 C-70.45503906 325.75546875 -70.91007813 324.6984375 -71.37890625 323.609375 C-72.10659725 321.92824068 -72.84189504 320.25034494 -73.58984375 318.578125 C-76.64143204 311.32181367 -76.41313298 304.44125955 -73.65625 297.140625 C-67.47493359 284.33646957 -56.10911254 281.00630418 -43.625 276 C-28.02026452 269.59093342 -16.45660797 263.49710456 -9.5078125 247.390625 C-7.64783251 242.44092619 -7.40379955 237.95362938 -7.38549805 232.68505859 C-7.37892685 231.86173035 -7.37235565 231.0384021 -7.36558533 230.19012451 C-7.34589183 227.4678945 -7.33419675 224.74571964 -7.32421875 222.0234375 C-7.32014322 221.09078693 -7.3160677 220.15813637 -7.31186867 219.19722366 C-7.29102188 214.25794955 -7.27671576 209.31870309 -7.26733398 204.37939453 C-7.25628981 199.29542727 -7.22190889 194.21190011 -7.18216228 189.128088 C-7.15592494 185.20394111 -7.1476357 181.27989781 -7.14405251 177.35567093 C-7.13920269 175.48271345 -7.12763485 173.60976009 -7.10901451 171.73688889 C-6.86783955 157.81606749 -6.86783955 157.81606749 -11.5625 144.875 C-12.26632812 143.43060547 -12.26632812 143.43060547 -12.984375 141.95703125 C-20.57345307 128.98863608 -31.98657555 124.27559554 -45.40625 118.9375 C-66.88122405 110.34708835 -66.88122405 110.34708835 -72.625 99.9375 C-77.17007028 89.25658484 -74.92022548 81.30840363 -70.74462891 70.82080078 C-68.79804393 66.04870188 -66.76205543 61.31605912 -64.72167969 56.58349609 C-62.63023736 51.69670983 -60.60133623 46.78390232 -58.5625 41.875 C-57.71356254 39.84374128 -56.86460438 37.8124912 -56.015625 35.78125 C-54.43818822 31.9993515 -52.88646745 28.20873792 -51.359375 24.40625 C-51.01261719 23.55417969 -50.66585937 22.70210938 -50.30859375 21.82421875 C-49.6715051 20.25773019 -49.04303664 18.68769038 -48.42578125 17.11328125 C-44.16048194 6.70595094 -37.89193656 0.15427219 -27.6484375 -4.390625 C-17.37286157 -6.83595193 -9.47336856 -4.04800817 0 0 Z " fill="#C76BE4" transform="translate(289.5625,430.125)"/>
<path d="M0 0 C1.05058594 0.56332031 2.10117187 1.12664062 3.18359375 1.70703125 C15.84550632 8.73776814 26.56675828 18.06286343 37 28 C38.09441406 29.01513672 38.09441406 29.01513672 39.2109375 30.05078125 C69.18236719 58.65987322 83.78224771 102.54465828 84.96484375 143.01171875 C85.63695903 186.84071015 67.61631374 228.66582688 37.33081055 259.95043945 C6.72605908 291.01481877 -34.66591229 308.40314332 -78.26245117 309.23388672 C-87.32688318 309.2941155 -96.0572351 308.55293522 -105 307 C-105.94230469 306.84402344 -106.88460937 306.68804688 -107.85546875 306.52734375 C-110.3125 306.0625 -110.3125 306.0625 -114 305 C-114.99 303.515 -114.99 303.515 -116 302 C-112.2890625 300.76302083 -108.578125 299.52604167 -104.8671875 298.2890625 C-103.87936279 297.95757202 -103.87936279 297.95757202 -102.87158203 297.61938477 C-101.24880089 297.08233862 -99.61725325 296.57192167 -97.984375 296.06640625 C-94.29431097 294.74783625 -90.86617838 293.08321014 -87.375 291.3125 C-86.32058716 290.77858643 -86.32058716 290.77858643 -85.24487305 290.23388672 C-74.57473111 284.78174142 -64.89341338 278.74138102 -55.56396484 271.24658203 C-54.07516876 270.05991441 -52.56347078 268.9021492 -51.05078125 267.74609375 C-44.3326402 262.50837988 -39.18143005 256.73395413 -34 250 C-32.60568545 248.29042683 -31.20990045 246.58205169 -29.8125 244.875 C-26.83555456 241.13910997 -24.0769221 237.33322354 -21.4921875 233.31640625 C-20.46465836 231.72131521 -19.40518116 230.14650413 -18.3203125 228.58984375 C-8.08281609 213.50659904 -2.76168325 195.25320888 1.25 177.625 C1.41330811 176.912229 1.57661621 176.19945801 1.74487305 175.46508789 C10.77101487 133.83519459 0.94177685 89.62593132 -21.77832031 54.22949219 C-27.34144117 45.78201086 -32.87797362 37.77540113 -40.21264648 30.76489258 C-41.88725878 29.11132445 -43.35520622 27.40742886 -44.8125 25.5625 C-62.15263133 5.06961752 -90.92580169 -7.64014115 -116 -15 C-86.12533252 -34.91644498 -27.54624747 -15.31037204 0 0 Z " fill="#C76BE4" transform="translate(759,485)"/>
<path d="M0 0 C6.02291923 3.56407798 11.06365019 9.26465995 14.5625 15.3125 C14.5625 16.6325 14.5625 17.9525 14.5625 19.3125 C13.80630371 19.62477539 13.05010742 19.93705078 12.27099609 20.25878906 C8.82371446 21.68674475 5.38061012 23.12451671 1.9375 24.5625 C0.74769531 25.05363281 -0.44210937 25.54476563 -1.66796875 26.05078125 C-2.82167969 26.53417969 -3.97539062 27.01757812 -5.1640625 27.515625 C-6.75081787 28.17546387 -6.75081787 28.17546387 -8.36962891 28.84863281 C-16.51534921 32.73544953 -20.0416889 37.17861907 -23.75 45.125 C-26.51529032 57.94589148 -21.46713815 67.71888107 -16.4375 79.3125 C-10.41512664 93.28500394 -7.07734436 107.15856615 -12.375 121.92578125 C-17.41380523 133.17561375 -27.65523856 141.71685568 -36.26049805 150.32080078 C-37.90246794 151.96500532 -39.53621041 153.61712522 -41.16992188 155.26953125 C-42.21565867 156.31819437 -43.26186447 157.36639004 -44.30859375 158.4140625 C-44.79500839 158.90766266 -45.28142303 159.40126282 -45.78257751 159.90982056 C-49.20861325 163.3125 -49.20861325 163.3125 -51.4375 163.3125 C-51.685 163.93125 -51.9325 164.55 -52.1875 165.1875 C-53.67490369 167.71608627 -54.87428009 168.03089004 -57.4375 169.3125 C-58.12236725 170.63657669 -58.78620203 171.97159241 -59.4375 173.3125 C-62.53771957 176.66408872 -65.88073616 179.46708893 -69.4375 182.3125 C-70.18 183.09625 -70.9225 183.88 -71.6875 184.6875 C-80.66014395 193.25229649 -91.01412823 197.47618079 -103.4375 197.3125 C-118.49886766 196.14930516 -133.16295514 188.04322772 -146.4375 181.3125 C-143.69091086 175.03856543 -138.06242534 170.60796985 -132.875 166.3125 C-129.62998081 163.59969352 -126.92512432 160.57700803 -124.2109375 157.33984375 C-122.0588119 154.87959444 -119.76401201 152.609014 -117.4375 150.3125 C-116.31174211 149.1882584 -115.18679139 148.06320817 -114.0625 146.9375 C-111.64583333 144.52083333 -109.22916667 142.10416667 -106.8125 139.6875 C-106.23806152 139.11241699 -105.66362305 138.53733398 -105.07177734 137.94482422 C-103.60718755 136.48198476 -102.13604676 135.02571103 -100.6640625 133.5703125 C-92.63266021 125.42618878 -89.97653977 115.84370224 -89.32421875 104.5078125 C-89.82455173 90.3949719 -97.05768259 74.59094532 -103.54296875 62.20043945 C-105.99395751 57.02754205 -105.05999872 49.80922458 -103.71484375 44.4140625 C-100.35140121 35.34502311 -93.93334098 30.32616648 -85.33203125 26.33569336 C-83.08787649 25.41695404 -80.83090106 24.54460662 -78.5625 23.6875 C-69.14483062 20.02837115 -59.84012873 16.13418009 -50.54736328 12.16943359 C-44.9526508 9.78632378 -39.34351412 7.46097101 -33.68896484 5.22363281 C-31.63802136 4.39364788 -29.61886115 3.51745284 -27.6015625 2.609375 C-18.47386058 -1.38021657 -9.60692731 -4.35537936 0 0 Z " fill="#C76BE4" transform="translate(502.4375,244.6875)"/>
<path d="M0 0 C6.68106986 6.1632122 13.18447056 12.49043601 19.62226868 18.90541077 C20.16951788 19.44983259 20.71676708 19.99425442 21.28059959 20.55517387 C24.16790784 23.4276374 27.05244473 26.30284811 29.93452454 29.18055725 C32.89082017 32.13134046 35.85631025 35.07270201 38.82397938 38.01204014 C41.12742759 40.29679366 43.42407146 42.58829696 45.71895409 44.88165092 C46.80919595 45.96888926 47.9019106 47.05365439 48.9972477 48.13575935 C59.77262514 58.79002413 66.82908968 68.21747181 67.16523743 83.83900452 C67.09319315 94.10411393 63.62199986 103.00614014 59.32929993 112.19837952 C53.83490526 124.06137558 49.32878191 134.29760006 53.75508118 147.37025452 C60.86943999 162.03253417 77.54604807 166.40206885 91.66523743 172.15150452 C88.36214844 179.99634085 84.0294491 184.93566815 76.38008118 188.81947327 C65.89537511 192.57897355 55.43788444 190.51989037 45.61103821 186.02015686 C42.52073552 184.64057129 39.37508818 183.40134877 36.23554993 182.1388092 C26.80197717 178.3339794 17.41932625 174.40080603 8.04023743 170.46400452 C6.98683167 170.0249176 5.9334259 169.58583069 4.84809875 169.13343811 C-21.05306768 158.20941443 -21.05306768 158.20941443 -26.27226257 147.90150452 C-30.98402516 136.20062743 -26.95253173 127.15985237 -22.33476257 116.15150452 C-21.63234087 114.51318197 -20.92919403 112.87517016 -20.22538757 111.23744202 C-13.83192735 96.1921279 -9.83319994 83.537625 -15.81913757 67.60853577 C-17.58594672 63.57857161 -19.52948462 60.51783806 -22.33476257 57.15150452 C-22.33476257 56.49150452 -22.33476257 55.83150452 -22.33476257 55.15150452 C-22.92918152 54.89473938 -23.52360046 54.63797424 -24.1360321 54.37342834 C-26.54228978 53.03617322 -27.77796279 51.72205223 -29.51445007 49.60072327 C-33.5828126 44.7957159 -37.9860201 40.38952257 -42.45976257 35.96400452 C-43.24480164 35.18347717 -44.0298407 34.40294983 -44.83866882 33.59877014 C-46.34947829 32.09687776 -47.86123425 30.59593671 -49.37406921 29.09608459 C-51.70119908 26.78807945 -54.01908514 24.4709969 -56.33476257 22.15150452 C-57.44535475 21.04074253 -58.55603861 19.93007221 -59.66679382 18.81947327 C-62.88945007 15.59681702 -66.11210632 12.37416077 -69.33476257 9.15150452 C-67.80842501 6.09882938 -65.42583749 5.71865935 -62.32304382 4.40150452 C-61.41427742 4.01333557 -61.41427742 4.01333557 -60.4871521 3.61732483 C-59.20142961 3.0696176 -57.91434115 2.52510771 -56.62602234 1.98353577 C-54.66981753 1.16098845 -52.71782622 0.32907354 -50.7664032 -0.50474548 C-34.08137829 -7.59364641 -15.73814333 -12.46031917 0 0 Z " fill="#C76CE5" transform="translate(424.3347625732422,822.8484954833984)"/>
<path d="M0 0 C1.16724609 0.47759766 2.33449219 0.95519531 3.53710938 1.44726562 C5.80476747 2.37860239 8.06879176 3.31884925 10.32861328 4.26904297 C12.2887206 5.08454859 14.26011383 5.87389459 16.24560547 6.62548828 C17.0604541 6.94630371 17.87530273 7.26711914 18.71484375 7.59765625 C19.41730225 7.86070557 20.11976074 8.12375488 20.84350586 8.39477539 C22.4375 9.5625 22.4375 9.5625 23.30126953 11.81689453 C23.47081385 15.23391148 22.67058763 17.30919932 21.33984375 20.45703125 C20.86740234 21.57787109 20.39496094 22.69871094 19.90820312 23.85351562 C19.40224609 25.01560547 18.89628906 26.17769531 18.375 27.375 C17.89611328 28.52548828 17.41722656 29.67597656 16.92382812 30.86132812 C11.91761858 42.55588724 5.43764896 52.37610364 -6.4765625 57.91796875 C-14.06957212 60.7525559 -20.77921942 61.71387659 -28.83203125 61.6953125 C-30.19091713 61.69729141 -30.19091713 61.69729141 -31.57725525 61.6993103 C-34.50987204 61.70122093 -37.44239299 61.6949095 -40.375 61.6875 C-41.36560425 61.68661377 -42.3562085 61.68572754 -43.37683105 61.68481445 C-58.12793997 61.66923462 -72.83360956 61.43256104 -87.5625 60.5625 C-86.79003906 56.72167969 -86.79003906 56.72167969 -84.7421875 55.2890625 C-83.98164062 54.92554688 -83.22109375 54.56203125 -82.4375 54.1875 C-67.57413357 46.27445974 -63.09659424 31.55900725 -57.35180664 16.47802734 C-53.22944583 5.75274627 -48.6688608 -1.09380847 -38.1875 -6.3125 C-24.884786 -11.93847727 -12.48804724 -5.16818354 0 0 Z " fill="#C76BE4" transform="translate(738.5625,251.4375)"/>
<path d="M0 0 C0.68626591 -0.00282738 1.37253181 -0.00565475 2.07959366 -0.00856781 C5.70915348 -0.02347907 9.33867435 -0.03276027 12.96826172 -0.03710938 C16.68893629 -0.0425926 20.40924471 -0.06664047 24.12980461 -0.09508133 C27.01767991 -0.11382524 29.90546885 -0.11891943 32.79339981 -0.12044525 C34.16395196 -0.12344416 35.53450361 -0.13137752 36.90499496 -0.14463043 C51.12743497 -0.27239142 61.5559911 2.54810603 72.5390625 11.875 C81.21895932 20.79162128 85.76677369 33.92005018 89.66015625 45.5078125 C90.47750281 48.13213197 90.47750281 48.13213197 91.5703125 50.203125 C83.91762256 53.27928843 83.91762256 53.27928843 80.31225586 54.71118164 C75.38334643 56.66879607 70.47068137 58.65619037 65.578125 60.703125 C41.23715778 70.76453609 41.23715778 70.76453609 29.47265625 67.05859375 C17.12647759 61.50661608 12.79663913 53.17323813 8.1328125 41.015625 C1.70179407 24.12144976 1.70179407 24.12144976 -9.4296875 10.203125 C-9.4296875 9.543125 -9.4296875 8.883125 -9.4296875 8.203125 C-12.30988026 6.73660483 -15.22277265 5.38264626 -18.1796875 4.078125 C-18.97890625 3.72492187 -19.778125 3.37171875 -20.6015625 3.0078125 C-21.20484375 2.74226562 -21.808125 2.47671875 -22.4296875 2.203125 C-22.4296875 1.873125 -22.4296875 1.543125 -22.4296875 1.203125 C-14.96355027 0.02878222 -7.54413074 0.02110752 0 0 Z " fill="#C76CE5" transform="translate(670.4296875,945.796875)"/>
<path d="M0 0 C5.35755664 2.34068009 8.69463625 6.21463687 11.57421875 11.25390625 C11.57421875 11.91390625 11.57421875 12.57390625 11.57421875 13.25390625 C1.71037617 14.13069226 -6.31295209 9.88030862 -13.84375 3.83984375 C-15.42578125 2.25390625 -15.42578125 2.25390625 -15.42578125 0.25390625 C-16.08578125 0.25390625 -16.74578125 0.25390625 -17.42578125 0.25390625 C-17.42578125 -0.40609375 -17.42578125 -1.06609375 -17.42578125 -1.74609375 C-12.61809067 -4.14993904 -4.94082394 -1.5196415 0 0 Z " fill="#C76CE5" transform="translate(943.42578125,428.74609375)"/>
<path d="M0 0 C-1.32 2.31 -2.64 4.62 -4 7 C-4.66 7 -5.32 7 -6 7 C-6.309375 7.8971875 -6.309375 7.8971875 -6.625 8.8125 C-8.57904225 11.92120359 -10.62030578 12.60471339 -14 14 C-16.6879236 14.35567474 -19.18517772 14.59627541 -21.875 14.6875 C-22.56335938 14.72166016 -23.25171875 14.75582031 -23.9609375 14.79101562 C-25.64008613 14.87264091 -27.32001168 14.9380157 -29 15 C-26.45529148 8.87384985 -20.2239193 4.80361187 -14.3125 2.125 C-9.48132577 0.48422384 -5.09055101 -0.14972209 0 0 Z " fill="#C76CE5" transform="translate(955,817)"/>
</svg>
